<svg width="210" height="58" viewBox="0 0 210 58" xmlns="http://www.w3.org/2000/svg" xmlns:xlink="http://www.w3.org/1999/xlink"><svg id="qcloud-logo" viewBox="115 -22 210 58" width="210" height="58"><style>.ast0{fill:#fff}</style><g id="aXMLID_16_"><g id="aXMLID_20_"><path id="aXMLID_33_" class="ast0" d="M280.7-11.4H258v3.3h6.8V3.8h-7.9V7h7.9v20.1h3.6v-20h8.6v19.6h6.8v-3.3h-3.2l.1-34.8zM268.4 3.9v-12h8.6V3.8l-8.6.1z"/><path id="aXMLID_12_" class="ast0" d="M217.8 18h17.9v3.3h-17.9z"/><path id="aXMLID_28_" class="ast0" d="M205.5 11.9c0 6-.5 10.5-1.4 14.5-.1.4 0 .5.2.5h3.3c1.1-5.5 1.3-10.1 1.3-13.4h4.6v10.2h-3.3c-.2 0-.3.1-.2.4l.9 3h5.9v-38.3h-11.2v23.1zm3.4-1.3V2.7h4.6v7.9h-4.6zm4.5-18.7v7.8h-4.6v-7.8h4.6z"/><path id="aXMLID_25_" class="ast0" d="M236.9 2h4.4v-3h-12.8c.4-.9.7-2 1.1-3.1h10.9v-3h-3.3c.5-1.8 1.2-4 1.2-4.1.1-.2-.1-.3-.2-.3h-2.8L234.2-7h-4c.4-1.7.7-3.6 1-5.7 0-.3-.1-.3-.3-.3h-3.2c-.4 2.3-.6 4.2-1.1 6.1h-1.9l-1.3-4.4h-2.8c-.2 0-.3.1-.2.3 0 .1.6 2.3 1.2 4.1h-3.2v3h7.3c-.3.9-.7 2-1.2 3.1h-6.9v3h5.2c-2.1 3-4.3 4.3-5.2 4.9v3.3c0 .2.1.4.6.1 1-.5 2-1.2 3.1-2h12.2l-.1 4.4h-9.7l.2-2.6c0-.1-.1-.2-.2-.2h-3.1l-.3 5.6c0 .1.1.2.2.2h16.6v8h-7.5c-.2 0-.3.1-.2.4l.9 3H241V12.7h-4.1L237 7c1.5 1.4 3.1 2.4 4.5 3.3.5.3.6.1.6-.1V6.9c-.8-.6-3.1-1.9-5.2-4.9zm-4 0c.8 1.3 1.6 2.4 2.5 3.4h-10.8c.8-1 1.6-2.1 2.4-3.4h5.9z"/><path id="aXMLID_6_" class="ast0" d="M260.3 15.7c-.1.1-3.2 2.4-6.1 4.6V-1h-8.4v3.6h4.9V23c-1.2.9-1.9 1.4-1.9 1.4l2 2.6 9.9-7.5v-3.7c-.1-.1-.3-.2-.4-.1z"/><path id="aXMLID_5_" class="ast0" d="M251.1-4.3h4c.2 0 .3-.2.2-.3-.1-.1-5-7.6-5-7.6h-4c-.2 0-.3.2-.2.3 0 .2 5 7.6 5 7.6z"/><path id="aXMLID_4_" class="ast0" d="M291.5-10.5H320v3.6h-28.5z"/><path id="aXMLID_3_" class="ast0" d="M301.8 6.7H324V3.1h-36.5v3.6h10.1c-2.1 5.5-7.3 19.3-7.4 19.4-.1.2.1.3.2.3h31.5c.2 0 .3-.2.2-.3 0-.1-4.7-12.4-4.7-12.4h-3.9c-.1 0-.3.2-.2.3.1.1 3.3 8.8 3.3 8.8h-20.9l6.1-16.1z"/></g><path id="aXMLID_17_" class="ast0" d="M187.8 4.5c-3.3-3.3-7.7-5.3-12.7-5.3-4.3 0-8 1.4-11.3 4.2-1.4 1.2-2.9 2.5-4.8 4.3-.6.6-12.8 12.5-20.9 20.3-1.1 0-2.7 0-4.2-.1-4-.2-6.4-1.7-7.8-3-4.2-4.2-4.3-11-.2-15.4 2-2 4.7-3.3 7.7-3.3 1.9 0 4.4.5 7.3 3 1.4 1.2 4.4 3.9 5.8 5.1.1.1.2.1.3 0l4.8-4.6c.1-.1.1-.2 0-.3-2.3-2.1-5.5-5-7.5-6.4-2.1-1.5-4.2-2.6-6.7-3.2h.1c1.7-7.9 8.5-13.7 16.6-13.7 6.8 0 12.7 4.1 15.4 9.9 0 .1.1.1.2.1 2-.5 4.4-.9 6.8-.7.3 0 .3-.1.3-.4-3.3-9.2-12.2-15.8-22.6-15.8-11.9 0-21.8 8.8-23.6 20.2-3.8.6-7.1 2.5-9.8 5.2-6.9 7.1-6.8 18.3.3 25.2 2.8 2.8 6.2 4.3 9.9 4.8 1.4.2 3.3.3 5.1.3H170c2.6 0 4.2 0 6.1-.1 4.2-.3 8.1-1.8 11.3-5 7.2-7 7.3-18.2.4-25.3zm-5.1 20.3c-1.4 1.4-3.8 2.9-7.8 3-1.8.1-4 .1-5 .1h-21.6c7.9-7.6 14.6-14.3 15.5-15 .7-.7 2.4-2.3 3.7-3.4 3-2.7 5.8-3.3 7.7-3.3 3 0 5.8 1.3 7.7 3.3 4.1 4.1 4 11-.2 15.3z"/></g></svg></svg>