<?xml version="1.0" encoding="UTF-8"?>
<svg width="20px" height="20px" viewBox="0 0 20 20" version="1.1" xmlns="http://www.w3.org/2000/svg" xmlns:xlink="http://www.w3.org/1999/xlink">
    <!-- Generator: Sketch 52.5 (67469) - http://www.bohemiancoding.com/sketch -->
    <title>ic_abnormal_disable</title>
    <desc>Created with Sketch.</desc>
    <g id="复判工具" stroke="none" stroke-width="1" fill="none" fill-rule="evenodd">
        <g id="03样本验证_按产品复判_图片加载2" transform="translate(-1225.000000, -976.000000)">
            <g id="操作栏" transform="translate(0.000000, 262.000000)">
                <g id="按钮区" transform="translate(928.000000, 640.000000)">
                    <g id="异常单开具" transform="translate(241.000000, 60.000000)">
                        <g id="ic_abnormal_disable" transform="translate(56.000000, 14.000000)">
                            <g>
                                <g>
                                    <rect id="Rectangle" x="0" y="0" width="20" height="20"></rect>
                                    <path d="M6,14 L14,14 L14,7 C14,4.790861 12.209139,3 10,3 C7.790861,3 6,4.790861 6,7 L6,14 Z M4,7 C4,3.6862915 6.6862915,1 10,1 C13.3137085,1 16,3.6862915 16,7 L16,16 L4,16 L4,7 Z" id="Path" fill="#CFD1D5" fill-rule="nonzero"></path>
                                    <polygon id="Path-21" fill="#CFD1D5" fill-rule="nonzero" points="2 16 2 14 18 14 18 16"></polygon>
                                    <polygon id="Path-3" fill="#CFD1D5" fill-rule="nonzero" points="8 19 8 17 12 17 12 19"></polygon>
                                </g>
                            </g>
                        </g>
                    </g>
                </g>
            </g>
        </g>
    </g>
</svg>