<?xml version="1.0" encoding="UTF-8"?>
<svg width="20px" height="20px" viewBox="0 0 20 20" version="1.1" xmlns="http://www.w3.org/2000/svg" xmlns:xlink="http://www.w3.org/1999/xlink">
    <!-- Generator: Sketch 52.5 (67469) - http://www.bohemiancoding.com/sketch -->
    <title>ic_search</title>
    <desc>Created with Sketch.</desc>
    <g id="复判工具" stroke="none" stroke-width="1" fill="none" fill-rule="evenodd">
        <g id="搜索/添加-CODE_08_点击回车自动添加并选中" transform="translate(-944.000000, -316.000000)">
            <g id="操作栏" transform="translate(0.000000, 262.000000)">
                <g id="code区" transform="translate(928.000000, 40.000000)">
                    <g id="搜索">
                        <g id="ic_search" transform="translate(16.000000, 14.000000)">
                            <g id="Group-4">
                                <g>
                                    <g>
                                        <rect id="Rectangle" x="0" y="0" width="20" height="20"></rect>
                                        <path d="M9,15 C12.3137085,15 15,12.3137085 15,9 C15,5.6862915 12.3137085,3 9,3 C5.6862915,3 3,5.6862915 3,9 C3,12.3137085 5.6862915,15 9,15 Z M9,17 C4.581722,17 1,13.418278 1,9 C1,4.581722 4.581722,1 9,1 C13.418278,1 17,4.581722 17,9 C17,13.418278 13.418278,17 9,17 Z" id="Oval" fill="#333333" fill-rule="nonzero"></path>
                                        <polygon id="Path-2" fill="#333333" fill-rule="nonzero" points="13.7928932 15.2071068 15.2071068 13.7928932 19.2071068 17.7928932 17.7928932 19.2071068"></polygon>
                                    </g>
                                </g>
                            </g>
                        </g>
                    </g>
                </g>
            </g>
        </g>
    </g>
</svg>