<?xml version="1.0" standalone="no"?><!DOCTYPE svg PUBLIC "-//W3C//DTD SVG 1.1//EN" "http://www.w3.org/Graphics/SVG/1.1/DTD/svg11.dtd"><svg t="1553066526365" class="icon" style="" viewBox="0 0 1024 1024" version="1.1" xmlns="http://www.w3.org/2000/svg" p-id="1238" xmlns:xlink="http://www.w3.org/1999/xlink" width="200" height="200"><defs><style type="text/css"></style></defs><path d="M434.56 704H288a32 32 0 0 1 0-64h146.56l-41.28-41.28a32 32 0 0 1 45.12-45.12l92.8 92.8a31.936 31.936 0 0 1 1.6 49.92l-94.4 94.4a32 32 0 0 1-45.12-45.44L434.56 704zM736 800h-96a32 32 0 0 1 0-64h64V288H320v160a32 32 0 1 1-64 0V256a32 32 0 0 1 32-32h448a32 32 0 0 1 32 32v512a32 32 0 0 1-32 32z" p-id="1239" fill="#1296db"></path></svg>