<svg id="图层_1" xmlns="http://www.w3.org/2000/svg" width="32" height="32" viewBox="0 0 32 32"><style>.st0{fill-rule:evenodd;clip-rule:evenodd;fill:url(#XMLID_3_)}</style><linearGradient id="XMLID_3_" gradientUnits="userSpaceOnUse" x1="26.463" y1="26.742" x2="4.9" y2="5.178"><stop offset="0" stop-color="#0063ff"/><stop offset="1" stop-color="#00c8de"/></linearGradient><path id="XMLID_4_" class="st0" d="M15.8 8.7l.6.4 1.7-1-2.3-1.5L8 11.4v8.7l3.5 2.2 1.8-1 4.5-2.5 2-1.1v-2.3-.1c0-.8-.7-1.5-1.5-1.5s-1.5.7-1.5 1.5c0 .5.3 1 .7 1.3l-6.1 3.5-1.4-1v-6.6h-.1l4.4-2.9 1.5-.9zm8 11.5v-8.4L19.6 9l-.3.2-7.4 4.3v2.8c0 .8.7 1.5 1.5 1.5s1.5-.7 1.5-1.5c0-.7-.4-1.2-1-1.4v-.2l5.8-3.4 2.2 1.5h-.1.1v6.3L15.8 23v-.1.1l-1-.6-1.7 1 2.7 1.7 8-4.9zm5.9-12.1L15.8 0v.3V0L2 8.1v16L15.7 32v-.3.3l13-7.9 1-.6V12.3l-2 1v9.2l-12 7.3L4 23V9.2l11.9-6.9 11.7 6.9 2.1-1.1z"/></svg>