<?xml version="1.0" encoding="UTF-8"?>
<svg width="100px" height="19px" viewBox="0 0 100 19" version="1.1" xmlns="http://www.w3.org/2000/svg" xmlns:xlink="http://www.w3.org/1999/xlink">
    <!-- Generator: Sketch 50.2 (55047) - http://www.bohemiancoding.com/sketch -->
    <title>Group 4</title>
    <desc>Created with Sketch.</desc>
    <defs></defs>
    <g id="教学平台学生端" stroke="none" stroke-width="1" fill="none" fill-rule="evenodd">
        <g id="课程详情" transform="translate(-625.000000, -162.000000)" fill="#DDDDDD">
            <g id="Group-4" transform="translate(625.000000, 162.000000)">
                <polygon id="Star" points="10 15 4.12214748 18.0901699 5.24471742 11.545085 0.489434837 6.90983006 7.06107374 5.95491503 10 0 12.9389263 5.95491503 19.5105652 6.90983006 14.7552826 11.545085 15.8778525 18.0901699"></polygon>
                <polygon id="Star-Copy" points="30 15 24.1221475 18.0901699 25.2447174 11.545085 20.4894348 6.90983006 27.0610737 5.95491503 30 0 32.9389263 5.95491503 39.5105652 6.90983006 34.7552826 11.545085 35.8778525 18.0901699"></polygon>
                <polygon id="Star-Copy-2" points="50 15 44.1221475 18.0901699 45.2447174 11.545085 40.4894348 6.90983006 47.0610737 5.95491503 50 0 52.9389263 5.95491503 59.5105652 6.90983006 54.7552826 11.545085 55.8778525 18.0901699"></polygon>
                <polygon id="Star-Copy-3" points="70 15 64.1221475 18.0901699 65.2447174 11.545085 60.4894348 6.90983006 67.0610737 5.95491503 70 0 72.9389263 5.95491503 79.5105652 6.90983006 74.7552826 11.545085 75.8778525 18.0901699"></polygon>
                <polygon id="Star-Copy-4" points="90 15 84.1221475 18.0901699 85.2447174 11.545085 80.4894348 6.90983006 87.0610737 5.95491503 90 0 92.9389263 5.95491503 99.5105652 6.90983006 94.7552826 11.545085 95.8778525 18.0901699"></polygon>
            </g>
        </g>
    </g>
</svg>